<svg xmlns="http://www.w3.org/2000/svg" width="55" height="40" viewBox="0 0 55 40">
    <g fill="#010101" fill-rule="nonzero">
        <path d="M32.5 29.004a1.49 1.49 0 0 1 1.19.47c.198.231.308.525.31.83v.47h-.469v-.47a.892.892 0 0 0-.145-.47 1.274 1.274 0 0 0-1.842 0 .94.94 0 0 0-.146.47v4.392a.94.94 0 0 0 .146.47 1.274 1.274 0 0 0 1.842 0 .892.892 0 0 0 .145-.47v-.47H34v.47a1.296 1.296 0 0 1-.31.83 1.49 1.49 0 0 1-1.19.47 1.476 1.476 0 0 1-1.19-.47c-.2-.23-.31-.525-.31-.83v-4.392c0-.305.11-.6.31-.83.304-.33.743-.503 1.19-.47zm1.158 1.666v-.361c0-.094-.028-.939-1.149-.939-1.12 0-1.153.863-1.153.939V34.7c0 .094.028.938 1.153.938s1.149-.863 1.149-.938v-.361h.234v.36c0 .447-.29 1.202-1.406 1.202-1.116 0-1.406-.755-1.406-1.201v-4.392c0-.442.29-1.202 1.406-1.202 1.116 0 1.406.76 1.406 1.202v.36h-.234zm-2.555-.361V34.7c0 .446.29 1.201 1.406 1.201 1.116 0 1.407-.755 1.407-1.201v-.361h-.235v.36c0 .095-.028.94-1.148.94-1.12 0-1.153-.864-1.153-.94V30.31c0-.094.028-.939 1.153-.939s1.148.863 1.148.939v.36h.235v-.36c0-.442-.291-1.202-1.407-1.202-1.115 0-1.406.76-1.406 1.202zM35.796 29v.085L37 35.878V36h-.463v-.085l-.343-1.921h-1.388l-.343 1.921V36H34v-.122l1.204-6.793V29h.592zm.463 4.646l-.745-4.228-.745 4.228h1.49zm-.745-4.228l.745 4.228h-1.49l.745-4.228zm-.597 4.139h1.24l-.62-3.49-.62 3.49zM39.725 29c.403 0 1.238.273 1.238 1.115v2.197c.01.248-.038.495-.144.72a.96.96 0 0 1-.672.494l.802 2.328L41 36h-.464l-.027-.085-.812-2.352H38.44V36H38v-7h1.725zm-1.294.447v3.67h1.391c.622 0 .705-.386.705-.805v-2.197a.58.58 0 0 0-.283-.513 1.014 1.014 0 0 0-.5-.155H38.43zM43.751 29c.407 0 1.247.272 1.247 1.113v4.624c.012.248-.038.494-.144.718-.204.368-.606.58-1.023.54H42V29h1.751zm.911 1.103a.681.681 0 0 0-.35-.6 1.126 1.126 0 0 0-.56-.165H42.35v6.31h1.486c.723 0 .817-.493.817-.94l.01-4.605zm-2.335-.765h1.401c.198.005.391.061.56.164.217.121.35.352.346.601v4.625c0 .427-.093.939-.817.939h-1.485l-.005-6.329zm.117.108v6.103h1.378c.625 0 .714-.385.714-.803v-4.624a.583.583 0 0 0-.29-.512 1.014 1.014 0 0 0-.504-.155l-1.298-.009z"/>
        <path d="M46.953 19.554a1.11 1.11 0 0 0-.273-.279.724.724 0 0 0-.376-.127.48.48 0 0 0-.339.096c-.318.849-.714 1.67-1.18 2.451-.372.6-.85 1.132-1.412 1.57a8.302 8.302 0 0 0-.73-1.825c-.338-.635-.663-1.251-.978-1.859a25.161 25.161 0 0 1-.804-1.67 2.528 2.528 0 0 1-.269-1.274 5.152 5.152 0 0 1 1.05-2.32 8.742 8.742 0 0 1 1.881-1.657c.047-.128-.066-.315-.338-.557a6.491 6.491 0 0 0-.941-.694 7.36 7.36 0 0 0-1.101-.566 1.539 1.539 0 0 0-.847-.173c-.407.1-.76.345-.993.684a4.457 4.457 0 0 0-.672 1.338 6.961 6.961 0 0 0-.32 1.657 10.4 10.4 0 0 0 0 1.626c-.25.616-.47 1.26-.715 1.935-.245.676-.433 1.206-.664 1.754-.235.456-.47.972-.729 1.502a42.892 42.892 0 0 1-.89 1.771 7.13 7.13 0 0 1-.893 1.338c-.301.342-.593.484-.87.429-.193-.028-.287-.22-.287-.566.01-.43.068-.857.174-1.274a13.24 13.24 0 0 1 .508-1.625 57.977 57.977 0 0 0 1.077-3.114c.103-.279.16-.572.17-.867a1.433 1.433 0 0 0-.377-.8 4.27 4.27 0 0 0-.762-.675 5.017 5.017 0 0 0-.94-.511 4.853 4.853 0 0 0-.88-.302 1.288 1.288 0 0 0-.574-.032c-.123.037-.142.133-.057.288.17.274.241.595.202.913a7.01 7.01 0 0 1-.202 1.347v.173l-.047.17-.437 1.949a6.066 6.066 0 0 1-.72 1.922 9.581 9.581 0 0 1-1.11 1.575c-.334.39-.717.738-1.139 1.036a1.24 1.24 0 0 1-.847.302c-.193-.046-.292-.229-.31-.557a4.991 4.991 0 0 1 .145-1.233c.109-.489.245-1.027.41-1.612.164-.584.32-1.141.47-1.67.15-.53.297-1 .405-1.411.091-.278.14-.567.146-.859a1.819 1.819 0 0 0-.73-1.155 6.235 6.235 0 0 0-1.312-.822 3.611 3.611 0 0 0-1.167-.351c-.33-.032-.428.068-.296.297.117.26.166.543.14.826-.01.422-.046.842-.107 1.26-.066.48-.165 1.001-.297 1.561a60.374 60.374 0 0 0-.376 1.68c-.028.124-.047.247-.07.37l-.151.283a12.218 12.218 0 0 1-1.101 1.722c-.362.479-.793.905-1.28 1.264-.4.307-.9.469-1.411.457a1.223 1.223 0 0 1-.903-.43 2.832 2.832 0 0 1-.47-.954 4.276 4.276 0 0 1-.189-1.237v-1.315h.024l.616-2.867a11.691 11.691 0 0 0 2.183-2.1 18.166 18.166 0 0 0 1.797-2.639c.513-.915.955-1.865 1.322-2.844.342-.881.562-1.802.654-2.74a1.339 1.339 0 0 0-.254-.995 3.904 3.904 0 0 0-.828-.876 3.444 3.444 0 0 0-1.059-.557 1.684 1.684 0 0 0-.94-.073 5.621 5.621 0 0 0-2.588 1.712c-.832.949-1.51 2.016-2.009 3.164a20.634 20.634 0 0 0-1.331 4.173 24.451 24.451 0 0 0-.527 4.66l-.052 1.042-.677 1.315a6.92 6.92 0 0 1-1.37 1.776c-.609.588-1.382.99-2.225 1.155a7.316 7.316 0 0 0 1.543-3.04 6.88 6.88 0 0 0-.108-3.653 2.281 2.281 0 0 0-.433-.886 2.585 2.585 0 0 0-.705-.62 4.2 4.2 0 0 0-.824-.389 2.474 2.474 0 0 0-.752-.137 3.489 3.489 0 0 0-2.447.772v-.023a1.267 1.267 0 0 0-.54-1.027 5.802 5.802 0 0 0-1.308-.868 5.582 5.582 0 0 0-1.27-.456c-.358-.069-.504 0-.429.237.082.44.082.89 0 1.329-.078.697-.207 1.56-.386 2.588a204.28 204.28 0 0 1-.625 3.452 451.536 451.536 0 0 1-1.567 7.861c-.273 1.297-.522 2.493-.757 3.584a576.182 576.182 0 0 1-.607 2.785c-.17.767-.278 1.283-.32 1.57-.039.23-.055.463-.047.695.002.326.051.65.146.963.087.316.248.608.47.854.24.256.585.394.941.374a.3.3 0 0 0 .287-.224c.114-.354.21-.713.287-1.077.056-.228.17-.68.33-1.37.16-.689.347-1.465.564-2.383.216-.917.437-1.899.673-2.94.235-1.04.447-2.04.635-2.995.188-.954.376-1.826.555-2.557.179-.73.306-1.287.395-1.616.216.392.526.729.903.982.289.207.634.326.993.342a4.91 4.91 0 0 0 1.642-.233 7.1 7.1 0 0 0 1.533-.73 5.425 5.425 0 0 0 1.948-.224 6.016 6.016 0 0 0 1.755-.844c.483-.321.939-.679 1.364-1.069a3.61 3.61 0 0 0 .71-.913.63.63 0 0 0 0 .091c.122.468.279.926.471 1.37.209.467.488.9.828 1.288a4.3 4.3 0 0 0 1.214.958 3.336 3.336 0 0 0 1.618.375 3.286 3.286 0 0 0 1.938-.653 7.794 7.794 0 0 0 1.69-1.625c.06-.078.122-.165.183-.252.05.216.124.426.221.626.156.327.354.634.588.913.26.303.58.553.94.735.411.209.876.298 1.337.256.356-.028.7-.137 1.002-.32.342-.205.65-.457.917-.749.302-.334.576-.691.819-1.068a9.61 9.61 0 0 0 .706-1.32v.795c.014.256.066.508.155.749a2.908 2.908 0 0 0 1.411 1.643c.394.22.847.316 1.299.279a2.505 2.505 0 0 0 1.623-.703 7.196 7.196 0 0 0 1.28-1.626c.379-.658.703-1.345.969-2.054.272-.73.508-1.397.715-2.013a.67.67 0 0 0 0-.137l.188-.535c.165-.456.334-.913.508-1.337.263.697.517 1.458.762 2.283.228.74.332 1.51.306 2.282a2.474 2.474 0 0 1-.739 1.712c-.455.439-1.218.63-2.29.576a.44.44 0 0 0-.198.032c-.047.022 0 .09.089.205a4.165 4.165 0 0 0 1.684 1.187 4.19 4.19 0 0 0 1.774.224c.62-.056 1.23-.2 1.806-.43a6.732 6.732 0 0 0 1.788-1.027c.433-.32.822-.693 1.157-1.11.31-.394.598-.806.861-1.232a9.25 9.25 0 0 0 .65-1.292c.178-.456.366-.913.573-1.37a.343.343 0 0 0-.047-.333m-26.25-6.747c.31-1.031.685-2.042 1.124-3.027.324-.747.717-1.464 1.176-2.142.246-.433.64-.769 1.115-.95.193-.045.277.097.263.425-.038.455-.13.904-.273 1.338-.17.566-.4 1.2-.687 1.918-.296.74-.634 1.464-1.011 2.168a25.715 25.715 0 0 1-1.256 2.128 11.914 11.914 0 0 1-1.379 1.757c.264-1.269.577-2.474.941-3.615M7.002 24.859a1.06 1.06 0 0 1-.419-.1 1.095 1.095 0 0 1-.409-.32 1.593 1.593 0 0 1-.296-.589 2.79 2.79 0 0 1-.09-.913l.42-1.306c.159.586.416 1.143.761 1.648.298.426.667.801 1.092 1.11-.284.272-.66.434-1.059.456m3.373-5.853a8.4 8.4 0 0 1-.263 1.744 8.83 8.83 0 0 1-1.327 2.845c-.185-.101-.345-.24-.47-.407-.35-.339-.64-.732-.856-1.164a3.528 3.528 0 0 1-.353-1.155 5.535 5.535 0 0 1-.024-1.114c.028-.365.07-.726.132-1.082l.042-.192c.239-.539.542-1.05.903-1.52a1.37 1.37 0 0 1 1.04-.57c.21.006.414.066.593.173a.869.869 0 0 1 .4.64c.157.595.224 1.21.197 1.825M47.193 5.198V1.251a1.182 1.182 0 0 1 .38-.884c.25-.244.588-.377.936-.366.33 0 .648.131.881.366.234.234.365.552.365.884v3.933h3.92c.35-.01.688.124.937.372a1.252 1.252 0 0 1 0 1.814 1.276 1.276 0 0 1-.937.376h-3.892v3.933c.01.354-.129.695-.384.94a1.28 1.28 0 0 1-.936.38 1.22 1.22 0 0 1-.904-.38 1.28 1.28 0 0 1-.37-.94V7.746h-3.92a1.239 1.239 0 0 1-.9-.376 1.286 1.286 0 0 1-.272-1.392c.196-.477.658-.79 1.172-.794l3.924.014z"/>
    </g>
</svg>
